# xmcd
#
# Track frame offsets:
#	150
#	14431
#	34660
#	51874
#	71760
#	85924
#	101051
#	118737
#	133784
#	150302
#	169452
#	189497
#
# Disc length: 2773 seconds
#
# Revision: 1
# Processed by: cddbd v1.5.2PL0 Copyright (c) Steve Scherf et al.
# Submitted via: audiograbber 1.83.01
#
DISCID=a30ad30c
DTITLE=Chatham County Line - Wildwood (Remastered)
DYEAR=2020
DGENRE=Country
TTITLE0=Wildwood (Remastered)
TTITLE1=Alone in New York (Remastered)
TTITLE2=Saturdays and Sundays (Remastered)
TTITLE3=Crop Comes In (Remastered)
TTITLE4=Porcelain Doll (Remastered)
TTITLE5=Out of the Running (Remastered)
TTITLE6=Heart Attack (Remastered)
TTITLE7=Ghost of Woody Guthrie (Remastered)
TTITLE8=Honeymoon (Remastered)
TTITLE9=Ringing in My Ears (Remastered)
TTITLE10=Blue Jay Way (Remastered)
TTITLE11=End of the Line (Remastered)
EXTD=
EXTT0=
EXTT1=
EXTT2=
EXTT3=
EXTT4=
EXTT5=
EXTT6=
EXTT7=
EXTT8=
EXTT9=
EXTT10=
EXTT11=
PLAYORDER=
